<?xml version="1.0"?>
<svg xmlns="http://www.w3.org/2000/svg" height="512px" viewBox="0 0 382.04857 382" width="512px" class=""><g><path d="m321.050781 51.128906c-75.28125-69.972656-192.429687-67.832031-265.105469 4.839844-72.675781 72.675781-74.8125 189.824219-4.839843 265.105469zm-223.679687 207.621094-11.523438 11.527344c-2.734375 2.734375-7.167968 2.734375-9.902344 0-2.734374-2.734375-2.734374-7.167969 0-9.902344l11.527344-11.523438c2.734375-2.734374 7.167969-2.734374 9.898438 0 2.734375 2.734376 2.734375 7.164063 0 9.898438zm28.8125-28.8125-11.523438 11.523438c-2.734375 2.734374-7.164062 2.734374-9.898437 0-2.734375-2.734376-2.734375-7.167969 0-9.898438l11.523437-11.527344c2.734375-2.734375 7.167969-2.734375 9.902344 0 2.730469 2.734375 2.730469 7.167969 0 9.902344zm28.8125-28.8125-11.523438 11.527344c-2.734375 2.734375-7.167968 2.734375-9.902344 0-2.730468-2.734375-2.730468-7.167969 0-9.902344l11.527344-11.523438c2.734375-2.734374 7.164063-2.734374 9.898438 0 2.734375 2.734376 2.734375 7.164063 0 9.898438zm28.816406-28.8125-11.527344 11.523438c-2.730468 2.734374-7.164062 2.734374-9.898437 0-2.734375-2.734376-2.734375-7.167969 0-9.902344l11.527343-11.523438c2.734376-2.734375 7.164063-2.734375 9.898438 0s2.734375 7.164063 0 9.898438zm28.8125-28.816406-11.523438 11.527344c-2.734374 2.730468-7.167968 2.730468-9.902343 0-2.730469-2.734376-2.730469-7.167969 0-9.902344l11.527343-11.523438c2.734376-2.734375 7.167969-2.734375 9.898438 0 2.734375 2.734375 2.734375 7.164063 0 9.898438zm28.816406-28.8125-11.527344 11.527344c-2.734374 2.730468-7.164062 2.730468-9.898437 0-2.734375-2.734376-2.734375-7.167969 0-9.902344l11.523437-11.527344c2.734376-2.730469 7.167969-2.730469 9.902344 0 2.734375 2.734375 2.734375 7.167969 0 9.902344zm28.8125-28.8125-11.527344 11.523437c-2.734374 2.734375-7.164062 2.734375-9.898437 0-2.734375-2.730469-2.734375-7.164062 0-9.898437l11.523437-11.527344c2.734376-2.734375 7.167969-2.734375 9.898438 0 2.734375 2.734375 2.734375 7.167969 0 9.902344zm28.171875-38.070313c2.734375 2.730469 2.734375 7.164063 0 9.898438l-11.523437 11.523437c-2.734375 2.734375-7.167969 2.734375-9.902344 0-2.730469-2.734375-2.730469-7.164062 0-9.898437l11.527344-11.523438c2.734375-2.734375 7.164062-2.734375 9.898437 0zm-38.710937-5.765625 11.519531-11.523437c2.734375-2.734375 7.167969-2.734375 9.898437 0 2.734376 2.734375 2.734376 7.164062 0 9.898437l-11.523437 11.527344c-2.734375 2.734375-7.164063 2.734375-9.898437 0-2.734376-2.734375-2.734376-7.167969 0-9.902344zm-28.171875 28.175782 11.523437-11.527344c2.734375-2.734375 7.164063-2.734375 9.898438 0s2.734375 7.167968 0 9.902344l-11.523438 11.523437c-2.734375 2.734375-7.167968 2.734375-9.902344 0-2.730468-2.734375-2.730468-7.167969 0-9.898437zm-28.816407 28.8125 11.527344-11.527344c2.734375-2.734375 7.164063-2.734375 9.898438 0s2.734375 7.167968 0 9.902344l-11.527344 11.523437c-2.730469 2.734375-7.164062 2.734375-9.898438 0-2.734374-2.734375-2.734374-7.167969 0-9.902344zm-28.8125 28.8125 11.523438-11.527344c2.734375-2.730469 7.167969-2.730469 9.898438 0 2.734374 2.734375 2.734374 7.167968 0 9.902344l-11.523438 11.523437c-2.734375 2.734375-7.164062 2.734375-9.898438 0-2.734374-2.730469-2.734374-7.164063 0-9.898437zm-28.816406 28.816406 11.527344-11.53125c2.734375-2.730469 7.167969-2.730469 9.902344 0 2.734375 2.734375 2.734375 7.167968 0 9.902344l-11.527344 11.527343c-2.734375 2.734375-7.167969 2.734375-9.902344 0s-2.734375-7.164062 0-9.898437zm-28.8125 28.808594 11.523438-11.523438c2.734375-2.734375 7.167968-2.734375 9.902344 0 2.734374 2.730469 2.734374 7.164062 0 9.898438l-11.527344 11.523437c-2.734375 2.734375-7.164063 2.734375-9.898438 0-2.734375-2.730469-2.734375-7.164063 0-9.898437zm-28.8125 28.8125 11.523438-11.523438c2.734375-2.734375 7.167968-2.734375 9.902344 0 2.734374 2.734375 2.734374 7.167969 0 9.902344l-11.527344 11.523437c-2.730469 2.734375-7.164063 2.734375-9.898438 0s-2.734375-7.164062 0-9.898437zm-28.8125 28.8125 11.523438-11.523438c2.734375-2.734375 7.167968-2.734375 9.898437 0 2.734375 2.734375 2.734375 7.164062 0 9.898438l-11.523437 11.527343c-2.734375 2.734375-7.167969 2.734375-9.902344 0-2.730469-2.734375-2.730469-7.167969 0-9.898437zm-23.222656 40.125c-2.832031 0-5.386719-1.707032-6.46875-4.320313-1.085938-2.617187-.484375-5.628906 1.515625-7.628906l11.527344-11.527344c2.734375-2.734375 7.164062-2.734375 9.898437 0s2.734375 7.167969 0 9.902344l-11.527344 11.523437c-1.308593 1.3125-3.089843 2.050782-4.945312 2.050782zm12.335938 5.335937 11.523437-11.523437c2.734375-2.734376 7.167969-2.734376 9.902344 0 2.734375 2.730468 2.734375 7.164062 0 9.898437l-11.527344 11.527344c-2.730469 2.734375-7.164063 2.734375-9.898437 0-2.734376-2.730469-2.734376-7.164063 0-9.898438zm0 0" data-original="#000000" class="active-path" data-old_color="#000000" fill="#FFFFFF"/><path d="m61.003906 330.972656c75.277344 69.96875 192.425782 67.824219 265.09375-4.851562 72.679688-72.667969 74.820313-189.820313 4.851563-265.097656zm223.679688-207.621094 11.523437-11.527343c2.734375-2.730469 7.167969-2.730469 9.902344 0 2.730469 2.734375 2.730469 7.167969 0 9.902343l-11.527344 11.523438c-2.734375 2.734375-7.167969 2.734375-9.902343 0-2.734376-2.734375-2.734376-7.164062 0-9.898438zm-28.816406 28.8125 11.527343-11.523437c2.730469-2.734375 7.164063-2.734375 9.898438 0 2.734375 2.730469 2.734375 7.164063 0 9.898437l-11.523438 11.523438c-2.734375 2.734375-7.167969 2.734375-9.902343 0-2.734376-2.730469-2.734376-7.164062 0-9.898438zm-28.8125 28.8125 11.527343-11.527343c2.734375-2.730469 7.164063-2.730469 9.898438 0 2.734375 2.734375 2.734375 7.167969 0 9.902343l-11.523438 11.523438c-2.734375 2.734375-7.167969 2.734375-9.898437 0-2.734375-2.734375-2.734375-7.164062 0-9.898438zm-28.8125 28.8125 11.523437-11.523437c2.734375-2.734375 7.167969-2.734375 9.902344 0s2.734375 7.164063 0 9.898437l-11.527344 11.527344c-2.734375 2.734375-7.167969 2.734375-9.898437 0-2.734376-2.734375-2.734376-7.167968 0-9.898437zm-28.816407 28.816407 11.527344-11.527344c2.734375-2.730469 7.164063-2.730469 9.898437 0 2.734376 2.734375 2.734376 7.167969 0 9.902344l-11.523437 11.523437c-2.734375 2.734375-7.167969 2.734375-9.902344 0s-2.734375-7.164062 0-9.898437zm-28.8125 28.8125 11.527344-11.523438c2.730469-2.734375 7.164063-2.734375 9.898437 0 2.734376 2.730469 2.734376 7.164063 0 9.898438l-11.527343 11.527343c-2.734375 2.734376-7.164063 2.734376-9.898438 0-2.734375-2.734374-2.734375-7.167968 0-9.902343zm-28.808593 28.8125 11.523437-11.523438c2.734375-2.734375 7.164063-2.734375 9.898437 0 2.734376 2.734375 2.734376 7.164063 0 9.898438l-11.523437 11.527343c-2.734375 2.730469-7.164063 2.730469-9.898437 0-2.734376-2.734374-2.734376-7.167968 0-9.902343zm-23.222657 40.121093c-2.832031 0-5.386719-1.707031-6.46875-4.320312-1.082031-2.617188-.484375-5.628906 1.515625-7.628906l11.527344-11.527344c2.734375-2.734375 7.164062-2.734375 9.898438 0 2.734374 2.734375 2.734374 7.167969 0 9.902344l-11.527344 11.527344c-1.3125 1.3125-3.089844 2.046874-4.945313 2.046874zm33.761719 3.710938-11.523438 11.527344c-2.734374 2.734375-7.167968 2.734375-9.902343 0s-2.734375-7.164063 0-9.898438l11.527343-11.527344c2.730469-2.734374 7.164063-2.734374 9.898438 0 2.734375 2.734376 2.734375 7.167969 0 9.902344zm28.171875-28.171875-11.523437 11.523437c-2.734376 2.734376-7.167969 2.734376-9.902344 0-2.730469-2.734374-2.730469-7.164062 0-9.898437l11.527344-11.527344c2.734374-2.730469 7.164062-2.730469 9.898437 0 2.734375 2.734375 2.734375 7.167969 0 9.902344zm28.8125-28.8125-11.527344 11.527344c-2.734375 2.734375-7.167969 2.734375-9.898437 0-2.734375-2.734375-2.734375-7.167969 0-9.902344l11.523437-11.523437c2.734375-2.734376 7.167969-2.734376 9.902344 0 2.734375 2.734374 2.734375 7.167968 0 9.902343zm28.8125-28.8125-11.523437 11.527344c-2.734376 2.734375-7.167969 2.734375-9.902344 0s-2.734375-7.167969 0-9.902344l11.527344-11.523437c2.730468-2.734376 7.164062-2.734376 9.898437 0 2.734375 2.734374 2.734375 7.164062 0 9.898437zm28.816406-28.816406-11.53125 11.53125c-2.734375 2.730469-7.164062 2.730469-9.898437 0-2.734375-2.734375-2.734375-7.167969 0-9.902344l11.527344-11.527344c2.734374-2.734375 7.167968-2.734375 9.898437 0 2.734375 2.734375 2.734375 7.167969 0 9.898438zm28.8125-28.8125-11.527343 11.527343c-2.730469 2.734376-7.164063 2.734376-9.898438 0-2.734375-2.734374-2.734375-7.167968 0-9.902343l11.527344-11.523438c2.734375-2.734375 7.164062-2.734375 9.898437 0s2.734375 7.164063 0 9.898438zm28.8125-28.8125-11.527343 11.527343c-2.734376 2.734376-7.164063 2.734376-9.898438 0-2.734375-2.734374-2.734375-7.167968 0-9.902343l11.523438-11.523438c2.734374-2.734375 7.167968-2.734375 9.902343 0s2.734375 7.164063 0 9.898438zm28.8125-28.8125-11.523437 11.523437c-2.734375 2.734375-7.167969 2.734375-9.902344 0-2.734375-2.730468-2.734375-7.164062 0-9.898437l11.527344-11.527344c2.734375-2.730469 7.164062-2.730469 9.898437 0 2.734375 2.734375 2.734375 7.167969 0 9.902344zm28.171875-38.070313c2.734375 2.730469 2.734375 7.164063 0 9.898438l-11.523437 11.523437c-2.734375 2.734375-7.167969 2.734375-9.898438 0-2.734375-2.730469-2.734375-7.164062 0-9.898437l11.523438-11.523438c2.734375-2.734375 7.167969-2.734375 9.898437 0zm-17.285156-7.390625-11.527344 11.527344c-2.734375 2.734375-7.164062 2.734375-9.898437 0s-2.734375-7.167969 0-9.902344l11.523437-11.523437c2.734375-2.734375 7.167969-2.734375 9.902344 0 2.730469 2.734375 2.730469 7.164062 0 9.898437zm0 0" data-original="#000000" class="active-path" data-old_color="#000000" fill="#FFFFFF"/></g> </svg>
