<?xml version="1.0" encoding="UTF-8"?>
<svg width="31px" height="32px" viewBox="0 0 31 32" version="1.1" xmlns="http://www.w3.org/2000/svg" xmlns:xlink="http://www.w3.org/1999/xlink">
    <!-- Generator: Sketch 44.1 (41455) - http://www.bohemiancoding.com/sketch -->
    <title>icon-nodata</title>
    <desc>Created with Sketch.</desc>
    <defs></defs>
    <g id="main" stroke="none" stroke-width="1" fill="none" fill-rule="evenodd">
        <g id="Multi-Markets-no-data" transform="translate(-89.000000, -122.000000)" fill="#7E97A7">
            <g id="Group" transform="translate(89.000000, 122.000000)">
                <path d="M18.7641866,10.0755668 C19.4417856,10.0755668 20.0216453,10.3240949 20.5037831,10.8211587 C20.9859209,11.3182225 21.2269861,11.9160335 21.2269861,12.6146096 C21.2269861,13.3131857 20.9859209,13.9042797 20.5037831,14.3879093 C20.0216453,14.8715389 19.4417856,15.1133501 18.7641866,15.1133501 C18.0865876,15.1133501 17.5132432,14.8715389 17.0441362,14.3879093 C16.5750292,13.9042797 16.3404792,13.3131857 16.3404792,12.6146096 C16.3404792,11.9160335 16.5750292,11.3182225 17.0441362,10.8211587 C17.5132432,10.3240949 18.0865876,10.0755668 18.7641866,10.0755668 Z M18.7641866,16.8463476 C19.4417856,16.8463476 20.0216453,17.0948758 20.5037831,17.5919395 C20.9859209,18.0890033 21.2269861,18.6868143 21.2269861,19.3853904 C21.2269861,20.0839665 20.9859209,20.6750606 20.5037831,21.1586902 C20.0216453,21.6423198 19.4417856,21.884131 18.7641866,21.884131 C18.0865876,21.884131 17.5132432,21.6423198 17.0441362,21.1586902 C16.5750292,20.6750606 16.3404792,20.0839665 16.3404792,19.3853904 C16.3404792,18.6868143 16.5750292,18.0890033 17.0441362,17.5919395 C17.5132432,17.0948758 18.0865876,16.8463476 18.7641866,16.8463476 Z M12.1967213,24.4231738 C12.6658283,24.4231738 13.0632602,24.5843813 13.389029,24.906801 C13.7147978,25.2292208 13.8776797,25.6188054 13.8776797,26.0755668 C13.8776797,26.5323281 13.7147978,26.9219127 13.389029,27.2443325 C13.0632602,27.5667522 12.6658283,27.7279597 12.1967213,27.7279597 C11.7276143,27.7279597 11.3432129,27.5667522 11.0435057,27.2443325 C10.7437984,26.9219127 10.593947,26.5323281 10.593947,26.0755668 C10.593947,25.6188054 10.7503137,25.2292208 11.0630517,24.906801 C11.3757897,24.5843813 11.7536758,24.4231738 12.1967213,24.4231738 Z M12.1967213,10.0755668 C12.8743203,10.0755668 13.45418,10.3240949 13.9363178,10.8211587 C14.4184555,11.3182225 14.6595208,11.9160335 14.6595208,12.6146096 C14.6595208,13.3131857 14.4184555,13.9042797 13.9363178,14.3879093 C13.45418,14.8715389 12.8743203,15.1133501 12.1967213,15.1133501 C11.5191223,15.1133501 10.9457779,14.8715389 10.4766709,14.3879093 C10.0075639,13.9042797 9.77301387,13.3131857 9.77301387,12.6146096 C9.77301387,11.9160335 10.0075639,11.3182225 10.4766709,10.8211587 C10.9457779,10.3240949 11.5191223,10.0755668 12.1967213,10.0755668 Z M18.7641866,30.2670025 C18.9987401,30.2670025 19.1876832,30.3476062 19.3310214,30.5088161 C19.4743597,30.670026 19.5460277,30.8715353 19.5460277,31.1133501 C19.5460277,31.3551649 19.4743597,31.5633912 19.3310214,31.7380353 C19.1876832,31.9126793 18.9987401,32 18.7641866,32 C18.5296331,32 18.3341748,31.9126793 18.1778058,31.7380353 C18.0214368,31.5633912 17.9432535,31.3551649 17.9432535,31.1133501 C17.9432535,30.8715353 18.0214368,30.670026 18.1778058,30.5088161 C18.3341748,30.3476062 18.5296331,30.2670025 18.7641866,30.2670025 Z M18.7641866,24.4231738 C19.2072321,24.4231738 19.5851182,24.5843813 19.8978562,24.906801 C20.2105942,25.2292208 20.3669609,25.6188054 20.3669609,26.0755668 C20.3669609,26.5323281 20.2105942,26.9219127 19.8978562,27.2443325 C19.5851182,27.5667522 19.2072321,27.7279597 18.7641866,27.7279597 C18.3211411,27.7279597 17.9302245,27.5667522 17.591425,27.2443325 C17.2526255,26.9219127 17.0832282,26.5323281 17.0832282,26.0755668 C17.0832282,25.6188054 17.2526255,25.2292208 17.591425,24.906801 C17.9302245,24.5843813 18.3211411,24.4231738 18.7641866,24.4231738 Z M30.1399748,18.4987406 C30.3745283,18.4987406 30.5765019,18.5860613 30.7459016,18.7607053 C30.9153014,18.9353493 31,19.1435756 31,19.3853904 C31,19.6272052 30.9153014,19.8152806 30.7459016,19.9496222 C30.5765019,20.0839637 30.3745283,20.1511335 30.1399748,20.1511335 C29.9054213,20.1511335 29.709963,20.0839637 29.5535939,19.9496222 C29.3972249,19.8152806 29.3190416,19.6272052 29.3190416,19.3853904 C29.3190416,19.1435756 29.3972249,18.9353493 29.5535939,18.7607053 C29.709963,18.5860613 29.9054213,18.4987406 30.1399748,18.4987406 Z M25.2534678,4.2720403 C25.6965134,4.2720403 26.0743994,4.43324776 26.3871375,4.75566751 C26.6998755,5.07808725 26.8562421,5.46767194 26.8562421,5.92443325 C26.8562421,6.38119456 26.6998755,6.77077924 26.3871375,7.09319899 C26.0743994,7.41561874 25.6965134,7.5768262 25.2534678,7.5768262 C24.8104223,7.5768262 24.4325362,7.41561874 24.1197982,7.09319899 C23.8070602,6.77077924 23.6506936,6.38119456 23.6506936,5.92443325 C23.6506936,5.46767194 23.8070602,5.07808725 24.1197982,4.75566751 C24.4325362,4.43324776 24.8104223,4.2720403 25.2534678,4.2720403 Z M25.2534678,10.9622166 C25.6965134,10.9622166 26.0743994,11.1234241 26.3871375,11.4458438 C26.6998755,11.7682636 26.8562421,12.1578483 26.8562421,12.6146096 C26.8562421,13.0713709 26.6998755,13.4743895 26.3871375,13.8236776 C26.0743994,14.1729656 25.6965134,14.3476071 25.2534678,14.3476071 C24.8104223,14.3476071 24.4325362,14.1729656 24.1197982,13.8236776 C23.8070602,13.4743895 23.6506936,13.0713709 23.6506936,12.6146096 C23.6506936,12.1578483 23.8070602,11.7682636 24.1197982,11.4458438 C24.4325362,11.1234241 24.8104223,10.9622166 25.2534678,10.9622166 Z M25.2534678,24.4231738 C25.6965134,24.4231738 26.0743994,24.5843813 26.3871375,24.906801 C26.6998755,25.2292208 26.8562421,25.6188054 26.8562421,26.0755668 C26.8562421,26.5323281 26.6998755,26.9219127 26.3871375,27.2443325 C26.0743994,27.5667522 25.6965134,27.7279597 25.2534678,27.7279597 C24.8104223,27.7279597 24.4325362,27.5667522 24.1197982,27.2443325 C23.8070602,26.9219127 23.6506936,26.5323281 23.6506936,26.0755668 C23.6506936,25.6188054 23.8070602,25.2292208 24.1197982,24.906801 C24.4325362,24.5843813 24.8104223,24.4231738 25.2534678,24.4231738 Z M25.2534678,17.6523929 C25.6965134,17.6523929 26.0743994,17.8203174 26.3871375,18.1561713 C26.6998755,18.4920252 26.8562421,18.9017608 26.8562421,19.3853904 C26.8562421,19.8690201 26.6998755,20.2653217 26.3871375,20.5743073 C26.0743994,20.8832929 25.6965134,21.0377834 25.2534678,21.0377834 C24.8104223,21.0377834 24.4325362,20.8765759 24.1197982,20.5541562 C23.8070602,20.2317364 23.6506936,19.8421517 23.6506936,19.3853904 C23.6506936,18.9286291 23.8070602,18.5256105 24.1197982,18.1763224 C24.4325362,17.8270344 24.8104223,17.6523929 25.2534678,17.6523929 Z M12.1967213,16.8463476 C12.8743203,16.8463476 13.45418,17.0948758 13.9363178,17.5919395 C14.4184555,18.0890033 14.6595208,18.6868143 14.6595208,19.3853904 C14.6595208,20.0839665 14.4184555,20.6750606 13.9363178,21.1586902 C13.45418,21.6423198 12.8743203,21.884131 12.1967213,21.884131 C11.5191223,21.884131 10.9457779,21.6423198 10.4766709,21.1586902 C10.0075639,20.6750606 9.77301387,20.0839665 9.77301387,19.3853904 C9.77301387,18.6868143 10.0075639,18.0890033 10.4766709,17.5919395 C10.9457779,17.0948758 11.5191223,16.8463476 12.1967213,16.8463476 Z M12.1967213,7.5768262 C11.7536758,7.5768262 11.3757897,7.41561874 11.0630517,7.09319899 C10.7503137,6.77077924 10.593947,6.38119456 10.593947,5.92443325 C10.593947,5.46767194 10.7503137,5.07808725 11.0630517,4.75566751 C11.3757897,4.43324776 11.7536758,4.2720403 12.1967213,4.2720403 C12.6397668,4.2720403 13.0306835,4.43324776 13.369483,4.75566751 C13.7082825,5.07808725 13.8776797,5.46767194 13.8776797,5.92443325 C13.8776797,6.38119456 13.7147978,6.77077924 13.389029,7.09319899 C13.0632602,7.41561874 12.6658283,7.5768262 12.1967213,7.5768262 Z M12.1967213,1.73299748 C11.9621678,1.73299748 11.77974,1.65239375 11.6494325,1.49118388 C11.519125,1.32997401 11.4539723,1.12846469 11.4539723,0.886649874 C11.4539723,0.644835063 11.519125,0.436608766 11.6494325,0.261964736 C11.77974,0.0873207053 11.9621678,0 12.1967213,0 C12.4312748,0 12.6332484,0.0873207053 12.8026482,0.261964736 C12.9720479,0.436608766 13.0567465,0.644835063 13.0567465,0.886649874 C13.0567465,1.12846469 12.9720479,1.32997401 12.8026482,1.49118388 C12.6332484,1.65239375 12.4312748,1.73299748 12.1967213,1.73299748 Z M12.1967213,30.2670025 C12.4312748,30.2670025 12.6332484,30.3476062 12.8026482,30.5088161 C12.9720479,30.670026 13.0567465,30.8715353 13.0567465,31.1133501 C13.0567465,31.3551649 12.9720479,31.5633912 12.8026482,31.7380353 C12.6332484,31.9126793 12.4312748,32 12.1967213,32 C11.9621678,32 11.77974,31.9126793 11.6494325,31.7380353 C11.519125,31.5633912 11.4539723,31.3551649 11.4539723,31.1133501 C11.4539723,30.8715353 11.519125,30.670026 11.6494325,30.5088161 C11.77974,30.3476062 11.9621678,30.2670025 12.1967213,30.2670025 Z M0.820933165,18.4987406 C1.05548667,18.4987406 1.25746027,18.5860613 1.42686003,18.7607053 C1.59625978,18.9353493 1.68095839,19.1435756 1.68095839,19.3853904 C1.68095839,19.6272052 1.59625978,19.8152806 1.42686003,19.9496222 C1.25746027,20.0839637 1.05548667,20.1511335 0.820933165,20.1511335 C0.58637966,20.1511335 0.390921337,20.0839637 0.234552333,19.9496222 C0.0781833291,19.8152806 0,19.6272052 0,19.3853904 C0,19.1435756 0.0781833291,18.9353493 0.234552333,18.7607053 C0.390921337,18.5860613 0.58637966,18.4987406 0.820933165,18.4987406 Z M18.7641866,1.73299748 C18.5296331,1.73299748 18.3341748,1.65239375 18.1778058,1.49118388 C18.0214368,1.32997401 17.9432535,1.12846469 17.9432535,0.886649874 C17.9432535,0.644835063 18.0214368,0.436608766 18.1778058,0.261964736 C18.3341748,0.0873207053 18.5296331,0 18.7641866,0 C18.9987401,0 19.1876832,0.0873207053 19.3310214,0.261964736 C19.4743597,0.436608766 19.5460277,0.644835063 19.5460277,0.886649874 C19.5460277,1.12846469 19.4743597,1.32997401 19.3310214,1.49118388 C19.1876832,1.65239375 18.9987401,1.73299748 18.7641866,1.73299748 Z M18.7641866,7.5768262 C18.3211411,7.5768262 17.9302245,7.41561874 17.591425,7.09319899 C17.2526255,6.77077924 17.0832282,6.38119456 17.0832282,5.92443325 C17.0832282,5.46767194 17.2526255,5.07808725 17.591425,4.75566751 C17.9302245,4.43324776 18.3211411,4.2720403 18.7641866,4.2720403 C19.2072321,4.2720403 19.5851182,4.43324776 19.8978562,4.75566751 C20.2105942,5.07808725 20.3669609,5.46767194 20.3669609,5.92443325 C20.3669609,6.38119456 20.2105942,6.77077924 19.8978562,7.09319899 C19.5851182,7.41561874 19.2072321,7.5768262 18.7641866,7.5768262 Z M30.1399748,13.4609572 C29.9054213,13.4609572 29.709963,13.3803535 29.5535939,13.2191436 C29.3972249,13.0579337 29.3190416,12.8564244 29.3190416,12.6146096 C29.3190416,12.3727948 29.3972249,12.1780024 29.5535939,12.0302267 C29.709963,11.882451 29.9054213,11.8085642 30.1399748,11.8085642 C30.3745283,11.8085642 30.5765019,11.882451 30.7459016,12.0302267 C30.9153014,12.1780024 31,12.3727948 31,12.6146096 C31,12.8564244 30.9153014,13.0579337 30.7459016,13.2191436 C30.5765019,13.3803535 30.3745283,13.4609572 30.1399748,13.4609572 Z M5.7074401,4.2720403 C6.15048561,4.2720403 6.5283717,4.43324776 6.84110971,4.75566751 C7.15384772,5.07808725 7.31021438,5.46767194 7.31021438,5.92443325 C7.31021438,6.38119456 7.15384772,6.77077924 6.84110971,7.09319899 C6.5283717,7.41561874 6.15048561,7.5768262 5.7074401,7.5768262 C5.26439459,7.5768262 4.8865085,7.41561874 4.57377049,7.09319899 C4.26103248,6.77077924 4.10466583,6.38119456 4.10466583,5.92443325 C4.10466583,5.46767194 4.26103248,5.07808725 4.57377049,4.75566751 C4.8865085,4.43324776 5.26439459,4.2720403 5.7074401,4.2720403 Z M0.820933165,11.8085642 C1.05548667,11.8085642 1.25746027,11.882451 1.42686003,12.0302267 C1.59625978,12.1780024 1.68095839,12.3727948 1.68095839,12.6146096 C1.68095839,12.8564244 1.59625978,13.0579337 1.42686003,13.2191436 C1.25746027,13.3803535 1.05548667,13.4609572 0.820933165,13.4609572 C0.58637966,13.4609572 0.390921337,13.3803535 0.234552333,13.2191436 C0.0781833291,13.0579337 0,12.8564244 0,12.6146096 C0,12.3727948 0.0781833291,12.1780024 0.234552333,12.0302267 C0.390921337,11.882451 0.58637966,11.8085642 0.820933165,11.8085642 Z M5.7074401,10.9622166 C6.15048561,10.9622166 6.5283717,11.1234241 6.84110971,11.4458438 C7.15384772,11.7682636 7.31021438,12.1578483 7.31021438,12.6146096 C7.31021438,13.0713709 7.15384772,13.4743895 6.84110971,13.8236776 C6.5283717,14.1729656 6.15048561,14.3476071 5.7074401,14.3476071 C5.26439459,14.3476071 4.8865085,14.1729656 4.57377049,13.8236776 C4.26103248,13.4743895 4.10466583,13.0713709 4.10466583,12.6146096 C4.10466583,12.1578483 4.26103248,11.7682636 4.57377049,11.4458438 C4.8865085,11.1234241 5.26439459,10.9622166 5.7074401,10.9622166 Z M5.7074401,24.4231738 C6.15048561,24.4231738 6.5283717,24.5843813 6.84110971,24.906801 C7.15384772,25.2292208 7.31021438,25.6188054 7.31021438,26.0755668 C7.31021438,26.5323281 7.15384772,26.9219127 6.84110971,27.2443325 C6.5283717,27.5667522 6.15048561,27.7279597 5.7074401,27.7279597 C5.26439459,27.7279597 4.8865085,27.5667522 4.57377049,27.2443325 C4.26103248,26.9219127 4.10466583,26.5323281 4.10466583,26.0755668 C4.10466583,25.6188054 4.26103248,25.2292208 4.57377049,24.906801 C4.8865085,24.5843813 5.26439459,24.4231738 5.7074401,24.4231738 Z M5.7074401,17.6523929 C6.15048561,17.6523929 6.5283717,17.8203174 6.84110971,18.1561713 C7.15384772,18.4920252 7.31021438,18.9017608 7.31021438,19.3853904 C7.31021438,19.8690201 7.15384772,20.2653217 6.84110971,20.5743073 C6.5283717,20.8832929 6.15048561,21.0377834 5.7074401,21.0377834 C5.26439459,21.0377834 4.8865085,20.8765759 4.57377049,20.5541562 C4.26103248,20.2317364 4.10466583,19.8421517 4.10466583,19.3853904 C4.10466583,18.9286291 4.26103248,18.5256105 4.57377049,18.1763224 C4.8865085,17.8270344 5.26439459,17.6523929 5.7074401,17.6523929 Z" id="blur_on---materialicons-regular"></path>
            </g>
        </g>
    </g>
</svg>