<svg width="159" height="159" xmlns="http://www.w3.org/2000/svg"><path d="M125.436 95.33c-.453 4.682-2.987 7.98-7.26 9.898-.83.372-1.207.754-1.295 1.729-.542 5.899-4.402 10.21-9.985 11.099-2.427.386-4.905.057-6.92.131-2.593 0-4.746.017-6.9-.01-.675-.008-1.012.24-1.248.888-1.268 3.486-3.987 5.356-7.713 5.361-2.928.006-5.855.011-8.782-.003-3.507-.017-6.301-1.867-7.428-4.89-1.2-3.216-.33-6.768 2.216-9.03 1.487-1.322 3.295-1.814 5.217-1.848a287 287 0 0 1 9.085-.007c3.334.044 6.2 2.077 7.333 5.224.277.77.65 1.032 1.45 1.024 3.904-.035 7.807.005 11.71-.023 4.399-.031 7.776-2.947 8.492-7.278.194-1.175.053-1.34-1.162-1.35-.673-.004-1.347 0-2.02 0-3.092-.006-4.605-1.5-4.606-4.566-.003-7.167-.001-14.334-.001-21.501 0-2.12-.013-4.24.004-6.36.02-2.525 1.276-4.055 3.782-4.244 3.402-.256 6.834-.295 9.92 1.514 4.001 2.346 6.15 5.912 6.243 10.526.093 4.57.31 9.157-.132 13.717M50.55 63.55c-.13.63-.317 1.05-1.07 1.061-2.795.044-5.566.365-8.318.833-.733.124-.94-.057-.873-.83.622-7.134 3.087-13.56 7.561-19.14 3.844-4.796 8.788-8.626 14.517-10.895 5.509-2.18 11.492-2.866 17.418-2.83 1.734.011 3.464.084 5.174.199 2.638.177 5.28.404 7.882.89 2.809.517 5.68 1.71 8.227 2.993a35.227 35.227 0 0 1 12.46 10.468c3.323 4.49 5.52 9.757 6.478 15.256.09.515.169 1.032.237 1.55.11.838.145 1.673.18 2.513.019.432-.152.558-.543.375-2.894-1.351-5.982-1.453-9.09-1.384-.745.016-1.047-.272-1.206-1.008-1.717-7.993-6.139-14.007-13.31-17.955a24.249 24.249 0 0 0-11.19-3.032 173.892 173.892 0 0 0-9.89-.002c-6.253.192-11.744 2.422-16.417 6.572-4.342 3.856-7.055 8.682-8.227 14.367m4.202 38.236c-.004 2.884-1.553 4.472-4.417 4.436-2.25-.029-4.51.22-6.747-.185-4.812-.87-8.388-4.805-8.648-9.688-.308-5.777-.321-11.563.016-17.34.273-4.676 4.606-8.957 9.263-9.363 1.983-.172 3.963-.172 5.946-.147 3.076.04 4.585 1.582 4.588 4.636.004 4.575.001 9.149 0 13.724 0 4.643.005 9.285-.001 13.927M79.52 0h-.04C35.646 0 0 35.656 0 79.5c0 17.39 5.605 33.509 15.135 46.597L5.227 155.63l30.558-9.769C48.355 154.19 63.351 159 79.52 159c43.834 0 79.48-35.666 79.48-79.5S123.354 0 79.52 0" fill="rgba(255,255,255,0.6)" fill-rule="nonzero"/></svg>