<svg width="22" height="22" xmlns="http://www.w3.org/2000/svg"><path d="M11.002 1h-.005C5.485 1 1 5.485 1 11c0 2.188.705 4.215 1.904 5.861l-1.246 3.715L5.5 19.347A9.913 9.913 0 0011.002 21C16.517 21 21 16.514 21 11S16.516 1 11.002 1zm5.82 14.121c-.242.681-1.2 1.246-1.963 1.412-.523.11-1.205.2-3.503-.753-2.938-1.218-4.831-4.204-4.978-4.398-.142-.193-1.188-1.58-1.188-3.016 0-1.435.729-2.134 1.022-2.434.242-.246.64-.358 1.023-.358.124 0 .235.006.335.011.294.012.441.03.635.494.241.581.829 2.016.899 2.163.071.148.142.348.042.542-.094.2-.176.288-.324.458-.147.17-.287.3-.434.483-.136.159-.288.329-.118.622.17.288.758 1.247 1.623 2.017 1.116.993 2.02 1.311 2.345 1.446.24.1.528.076.705-.111.223-.242.5-.642.78-1.035.2-.283.453-.318.718-.218.27.094 1.699.8 1.993.946.293.148.487.218.558.342.07.123.07.705-.17 1.387z" fill="rgba(255,255,255,0.6)" fill-rule="nonzero"/></svg>