<svg width="22" height="22" xmlns="http://www.w3.org/2000/svg"><path d="M20.425 13.123c.145-.652.22-1.327.22-2.02 0-5.193-4.27-9.404-9.539-9.404-.555 0-1.1.047-1.631.137A5.567 5.567 0 006.533 1C3.475 1 1 3.441 1 6.455c0 1.006.278 1.947.76 2.759a9.32 9.32 0 00-.194 1.89c0 5.195 4.272 9.406 9.539 9.406.598 0 1.181-.055 1.747-.158A5.58 5.58 0 0015.47 21C18.524 21 21 18.558 21 15.546c0-.871-.207-1.692-.575-2.423zm-4.426 2.476c-.442.616-1.093 1.104-1.939 1.448-.836.344-1.838.52-2.98.52-1.37 0-2.519-.238-3.416-.708a4.434 4.434 0 01-1.57-1.375c-.407-.575-.61-1.146-.61-1.699 0-.344.133-.643.397-.886.261-.244.596-.365.997-.365.327 0 .61.096.84.287.218.184.407.457.558.805.169.383.353.705.547.957.188.246.457.45.8.612.347.16.813.244 1.386.244.789 0 1.436-.166 1.921-.494.476-.319.706-.704.706-1.174 0-.37-.121-.662-.367-.891-.26-.24-.603-.426-1.018-.555a20.235 20.235 0 00-1.75-.427c-.991-.21-1.832-.457-2.5-.738-.683-.287-1.236-.685-1.638-1.183-.41-.506-.618-1.14-.618-1.885 0-.71.218-1.35.648-1.902.426-.549 1.048-.977 1.852-1.269.791-.288 1.733-.435 2.799-.435.851 0 1.6.098 2.226.29.629.193 1.159.453 1.575.774.42.325.733.669.928 1.029.197.362.298.724.298 1.072 0 .337-.131.643-.391.908a1.32 1.32 0 01-.98.404c-.352 0-.63-.087-.821-.253-.179-.156-.365-.4-.57-.747-.238-.445-.526-.797-.856-1.045-.322-.242-.857-.362-1.594-.362-.683 0-1.24.135-1.653.403-.397.256-.591.551-.591.901 0 .214.063.393.191.546.135.165.327.306.569.426.25.124.509.224.768.294.265.073.708.181 1.32.32.772.163 1.48.347 2.108.545a6.759 6.759 0 011.634.734c.456.294.818.669 1.075 1.119.258.454.388 1.01.388 1.657a3.54 3.54 0 01-.67 2.098z" fill="rgba(255,255,255,0.6)" fill-rule="nonzero"/></svg>