<svg width="13" height="16" viewBox="0 0 13 16" xmlns="http://www.w3.org/2000/svg"><path d="M6.408 3.223c1.164 0 2.238.288 3.223.863.972.563 1.739 1.324 2.302 2.283.588.998.882 2.072.882 3.223 0 1.151-.294 2.225-.882 3.223-.563.972-1.33 1.739-2.302 2.302-.998.588-2.072.882-3.223.882-1.151 0-2.225-.294-3.223-.882-.972-.563-1.739-1.33-2.302-2.302-.588-.998-.882-2.072-.882-3.223h1.612c0 .87.214 1.672.643 2.408.428.735 1.01 1.317 1.746 1.746.735.428 1.538.643 2.408.643.87 0 1.672-.214 2.408-.643.735-.428 1.317-1.01 1.746-1.746.428-.735.643-1.538.643-2.408 0-.87-.214-1.672-.643-2.408-.428-.735-1.01-1.317-1.746-1.746-.735-.428-1.538-.643-2.408-.643v3.223l-4.01-4.01 4.01-4.01v3.223z" fill="rgb(30,30,30)"/></svg>