<svg width="40" height="40" xmlns="http://www.w3.org/2000/svg"><path d="M29.172 0C35.142 0 40 4.857 40 10.828v18.345C40 35.143 35.143 40 29.173 40H10.828C4.858 40 0 35.143 0 29.173V10.828C0 4.858 4.857 0 10.828 0zM20 9.063C13.97 9.063 9.063 13.969 9.063 20c0 6.03 4.906 10.937 10.937 10.937 6.03 0 10.937-4.906 10.937-10.937 0-6.03-4.906-10.937-10.937-10.937zm0 2.345c4.738 0 8.592 3.854 8.592 8.592S24.738 28.592 20 28.592 11.408 24.738 11.408 20s3.854-8.592 8.592-8.592zm11.199-6.23a3.235 3.235 0 00-3.232 3.232 3.235 3.235 0 003.232 3.232A3.235 3.235 0 0034.43 8.41a3.236 3.236 0 00-3.232-3.232zm0 2.345a.888.888 0 010 1.774.888.888 0 010-1.774z" fill="rgba(255,255,255,0.6)" fill-rule="nonzero"/></svg>